<svg xmlns="http://www.w3.org/2000/svg" fill="none" viewBox="0 0 24 24" id="Recycled-Box-1--Streamline-Ultimate" height="24" width="24">
  <desc>
    Recycled Box 1 Streamline Icon: https://streamlinehq.com
  </desc>
  <path stroke="currentColor" stroke-linecap="round" stroke-linejoin="round" stroke-miterlimit="10" d="M23.01 18.345c0.7 1.3 -0.2 2.9 -1.7 2.9h-4.4" stroke-width="1.5"></path>
  <path stroke="currentColor" stroke-linecap="round" stroke-linejoin="round" stroke-miterlimit="10" d="M15.81 11.645c0.8 -1.3 2.7 -1.3 3.4 0l2.6 4.5" stroke-width="1.5"></path>
  <path stroke="currentColor" stroke-linecap="round" stroke-linejoin="round" stroke-miterlimit="10" d="M13.71 21.245c-1.5 0 -2.5 -1.6 -1.7 -2.9l2.4 -4.3" stroke-width="1.5"></path>
  <path stroke="currentColor" stroke-linecap="round" stroke-linejoin="round" stroke-miterlimit="10" d="m18.81 19.245 -1.9 2 1.9 2" stroke-width="1.5"></path>
  <path stroke="currentColor" stroke-linecap="round" stroke-linejoin="round" stroke-miterlimit="10" d="m15.21 16.645 -0.8 -2.6 -2.7 0.7" stroke-width="1.5"></path>
  <path stroke="currentColor" stroke-linecap="round" stroke-linejoin="round" stroke-miterlimit="10" d="m19.11 15.4449 2.7 0.7 0.7 -2.7" stroke-width="1.5"></path>
  <path stroke="currentColor" stroke-linecap="round" stroke-linejoin="round" stroke-miterlimit="10" d="M8.25 18.75h-6c-0.8 0 -1.5 -0.7 -1.5 -1.5V6.75c0 -0.8 0.7 -1.5 1.5 -1.5h15c0.8 0 1.5 0.7 1.5 1.5v2" stroke-width="1.5"></path>
  <path stroke="currentColor" stroke-linecap="round" stroke-linejoin="round" stroke-miterlimit="10" d="M18.25 5.65001 15.45 1.45c-0.3 -0.4 -0.7 -0.7 -1.2 -0.7h-8.9c-0.5 0 -1 0.3 -1.2 0.7l-2.9 4.20001" stroke-width="1.5"></path>
  <path stroke="currentColor" stroke-linecap="round" stroke-linejoin="round" stroke-miterlimit="10" d="M9.75 0.75v4.5" stroke-width="1.5"></path>
</svg>