<svg viewBox="0 0 24 24" xmlns="http://www.w3.org/2000/svg" id="Single-Neutral-Actions-Star--Streamline-Ultimate" height="24" width="24">
  <desc>
    Single Neutral Actions Star Streamline Icon: https://streamlinehq.com
  </desc>
  <path d="M0.75 17.25a6.751 6.751 0 0 1 10.517 -5.6" fill="none" stroke="currentColor" stroke-linecap="round" stroke-linejoin="round" stroke-width="1.5"></path>
  <path d="M3.375 4.875a4.125 4.125 0 1 0 8.25 0 4.125 4.125 0 1 0 -8.25 0Z" fill="none" stroke="currentColor" stroke-linecap="round" stroke-linejoin="round" stroke-width="1.5"></path>
  <path d="M17.946 11.68 19.488 15h3a0.735 0.735 0 0 1 0.518 1.283l-2.6 2.562 1.443 3.314a0.786 0.786 0 0 1 -1.119 0.982l-3.487 -1.961 -3.486 1.961a0.786 0.786 0 0 1 -1.12 -0.982l1.443 -3.314 -2.6 -2.562A0.734 0.734 0 0 1 11.988 15h3l1.544 -3.323a0.8 0.8 0 0 1 1.414 0.003Z" fill="none" stroke="currentColor" stroke-linecap="round" stroke-linejoin="round" stroke-width="1.5"></path>
</svg>